<!--?xml version="1.0" standalone="no"?-->
              <svg id="sw-js-blob-svg" viewBox="0 0 100 100" xmlns="http://www.w3.org/2000/svg" version="1.1">
                    <defs> 
                        <linearGradient id="sw-gradient" x1="0" x2="1" y1="1" y2="0">
                            <stop id="stop1" stop-color="rgba(6.984, 137.432, 24.957, 1)" offset="0%"></stop>
                            <stop id="stop2" stop-color="rgba(91.797, 219.397, 104.622, 1)" offset="100%"></stop>
                        </linearGradient>
                    </defs>
                <path fill="url(#sw-gradient)" d="M19.1,-31.3C25.4,-29.4,31.6,-25.6,35.9,-20.1C40.2,-14.6,42.5,-7.3,43.2,0.4C43.9,8.1,43,16.2,38.6,21.5C34.2,26.7,26.1,29,19.1,32C12.1,34.9,6,38.4,-0.5,39.3C-7,40.1,-14.1,38.3,-19.2,34.3C-24.3,30.2,-27.5,24,-30.8,17.9C-34.1,11.8,-37.6,5.9,-36.4,0.7C-35.3,-4.6,-29.5,-9.2,-26.3,-15.3C-23,-21.5,-22.2,-29.3,-18.2,-32.5C-14.3,-35.8,-7.1,-34.5,-0.4,-33.8C6.4,-33.2,12.8,-33.2,19.1,-31.3Z" width="100%" height="100%" transform="translate(50 50)" stroke-width="0" style="transition: 0.3s;"></path>
              </svg>